# 3ds Max Wavefront OBJ Exporter v0.97b - (c)2007 guruware
# File Created: 23.06.2019 00:05:00

#
# object Decal_Fight_
#

v  0.0000 -150.0000 150.0000
v  -0.0000 150.0000 150.0000
v  0.0000 -150.0000 -150.0000
v  -0.0000 150.0000 -150.0000
# 4 vertices

vn -1.0000 -0.0000 -0.0000
vn -1.0000 -0.0000 -0.0000
vn -1.0000 -0.0000 -0.0000
vn -1.0000 -0.0000 -0.0000
# 4 vertex normals

vt 0.0005 0.9995 0.0000
vt 0.0005 0.0005 0.0000
vt 0.9995 0.0005 0.0000
vt 0.9995 0.9995 0.0000
# 4 texture coords

o Decal_Fight_
g Decal_Fight_
s 1
f 3/1/1 1/2/2 2/3/3 4/4/4 
# 1 polygons

