# 3ds Max Wavefront OBJ Exporter v0.97b - (c)2007 guruware
# File Created: 20.06.2019 15:55:55

#
# object Ground_up_roof_low
#

v  900.0001 350.0000 -2000.0001
v  899.9999 350.0000 1999.9999
v  1300.0000 350.0000 -2000.0001
v  1300.0000 350.0000 1999.9999
v  1300.0000 350.0000 650.0003
v  1300.0000 350.0000 -649.9997
v  900.0000 350.0000 -649.9999
v  900.0000 350.0000 650.0001
v  900.0001 330.0000 -2000.0001
v  899.9999 330.0000 1999.9999
v  1300.0000 330.0000 -2000.0001
v  1300.0000 330.0000 1999.9999
v  1300.0000 330.0000 650.0003
v  1300.0000 330.0000 -649.9997
v  900.0000 330.0000 -649.9999
v  900.0000 330.0000 650.0001
# 16 vertices

vn -0.4472 0.8944 -0.0000
vn 0.4472 0.8944 0.0000
vn 0.4472 0.8944 0.0000
vn -0.4472 0.8944 -0.0000
vn -0.5774 0.5774 0.5774
vn 0.5774 0.5774 0.5774
vn 0.4472 0.8944 0.0000
vn -0.4472 0.8944 -0.0000
vn 0.5774 0.5774 -0.5774
vn -0.5774 0.5774 -0.5774
vn -0.4472 0.8944 -0.0000
vn 0.4472 0.8944 0.0000
vn 0.7071 -0.7071 0.0000
vn 0.5774 -0.5774 0.5774
vn -0.5774 -0.5774 0.5774
vn -0.7071 -0.7071 -0.0000
vn -0.7071 -0.7071 -0.0000
vn -0.5774 -0.5774 -0.5774
vn 0.5774 -0.5774 -0.5774
vn 0.7071 -0.7071 0.0000
vn 0.5774 0.5774 0.5774
vn -0.5774 0.5774 0.5774
vn -0.5774 -0.5774 0.5774
vn 0.5774 -0.5774 0.5774
vn 0.4472 0.8944 0.0000
vn 0.5774 0.5774 0.5774
vn 0.5774 -0.5774 0.5774
vn 0.7071 -0.7071 0.0000
vn -0.5774 0.5774 0.5774
vn -0.4472 0.8944 -0.0000
vn -0.7071 -0.7071 -0.0000
vn -0.5774 -0.5774 0.5774
vn -0.5774 0.5774 -0.5774
vn 0.5774 0.5774 -0.5774
vn 0.5774 -0.5774 -0.5774
vn -0.5774 -0.5774 -0.5774
vn -0.4472 0.8944 -0.0000
vn -0.5774 0.5774 -0.5774
vn -0.5774 -0.5774 -0.5774
vn -0.7071 -0.7071 -0.0000
vn 0.5774 0.5774 -0.5774
vn 0.4472 0.8944 0.0000
vn 0.7071 -0.7071 0.0000
vn 0.5774 -0.5774 -0.5774
# 44 vertex normals

vt 0.0100 0.4583 0.0000
vt 0.6577 0.1169 0.0000
vt 0.0100 0.1276 0.0000
vt 0.9884 0.1169 0.0000
vt 0.9884 0.2149 0.0000
vt 0.1080 0.1276 0.0000
vt 0.1080 0.4583 0.0000
vt 0.6577 0.2149 0.0000
vt 0.6448 0.2149 0.0000
vt 0.6448 0.1169 0.0000
vt 0.6497 0.1169 0.0000
vt 0.6497 0.2149 0.0000
vt 0.6320 0.2149 0.0000
vt 0.6320 0.1169 0.0000
vt 0.6369 0.1169 0.0000
vt 0.6369 0.2149 0.0000
vt 0.0277 0.4674 0.0000
vt 0.0277 0.7982 0.0000
vt 0.0228 0.7982 0.0000
vt 0.0228 0.4674 0.0000
vt 0.9884 0.2286 0.0000
vt 0.6577 0.2286 0.0000
vt 0.6577 0.2237 0.0000
vt 0.9884 0.2237 0.0000
vt 0.6593 0.0100 0.0000
vt 0.6593 0.1080 0.0000
vt 0.3408 0.1080 0.0000
vt 0.3408 0.0100 0.0000
vt 0.9900 0.0100 0.0000
vt 0.9900 0.1080 0.0000
vt 0.0100 0.1080 0.0000
vt 0.0100 0.0100 0.0000
vt 0.3408 0.1196 0.0000
vt 0.0100 0.1196 0.0000
vt 0.0100 0.1147 0.0000
vt 0.3408 0.1147 0.0000
vt 0.0100 0.7960 0.0000
vt 0.0100 0.4653 0.0000
vt 0.0149 0.4653 0.0000
vt 0.0149 0.7960 0.0000
# 40 texture coords

o Ground_up_roof_low
g Ground_up_roof_low
s 1
f 8/25/1 5/26/2 6/27/3 7/28/4 
f 2/29/5 4/30/6 5/26/7 8/25/8 
f 3/31/9 1/32/10 7/28/11 6/27/12 
f 13/2/13 12/4/14 10/5/15 16/8/16 
f 15/1/17 9/3/18 11/6/19 14/7/20 
s 4
f 4/9/21 2/10/22 10/11/23 12/12/24 
s 2
f 5/17/25 4/18/26 12/19/27 13/20/28 
f 2/21/29 8/22/30 16/23/31 10/24/32 
s 4
f 1/13/33 3/14/34 11/15/35 9/16/36 
s 2
f 7/37/37 1/38/38 9/39/39 15/40/40 
f 3/33/41 6/34/42 14/35/43 11/36/44 
# 11 polygons

