# 3ds Max Wavefront OBJ Exporter v0.97b - (c)2007 guruware
# File Created: 20.06.2019 16:07:03

#
# object Wall_short_up_low
#

v  1300.0000 350.0000 500.0000
v  1300.0000 1050.0000 500.0000
v  1300.0000 350.0000 -500.0000
v  1300.0000 1050.0000 -500.0000
# 4 vertices

vn -1.0000 -0.0000 -0.0000
vn -1.0000 -0.0000 -0.0000
vn -1.0000 -0.0000 -0.0000
vn -1.0000 -0.0000 -0.0000
# 4 vertex normals

vt 0.0005 0.9995 0.0000
vt 0.0005 0.0005 0.0000
vt 0.6998 0.0005 0.0000
vt 0.6998 0.9995 0.0000
# 4 texture coords

o Wall_short_up_low
g Wall_short_up_low
s 1
f 3/1/1 1/2/2 2/3/3 4/4/4 
# 1 polygons

