# 3ds Max Wavefront OBJ Exporter v0.97b - (c)2007 guruware
# File Created: 20.06.2019 16:11:37

#
# object Wall_Sides_low
#

v  1300.0000 0.0000 -2000.0001
v  1300.0000 1050.0000 -2000.0000
v  -1300.0000 0.0000 -2000.0000
v  -1300.0000 1050.0000 -1999.9999
v  -0.0000 0.0000 -2000.0000
v  0.0000 1400.0000 -2000.0000
# 6 vertices

vn 0.0000 -0.0000 1.0000
vn 0.0000 -0.0000 1.0000
vn 0.0000 -0.0000 1.0000
vn 0.0000 -0.0000 1.0000
vn 0.0000 -0.0000 1.0000
vn 0.0000 -0.0000 1.0000
vn 0.0000 -0.0000 1.0000
vn 0.0000 -0.0000 1.0000
# 8 vertex normals

vt 0.0005 0.9995 0.0000
vt 0.0005 0.5000 0.0000
vt 0.5384 0.5000 0.0000
vt 0.4039 0.9995 0.0000
vt 0.0005 0.0005 0.0000
vt 0.4039 0.0005 0.0000
# 6 texture coords

o Wall_Sides_low
g Wall_Sides_low
s 1
f 3/1/1 5/2/2 6/3/3 4/4/4 
f 5/2/5 1/5/6 2/6/7 6/3/8 
# 2 polygons

