# 3ds Max Wavefront OBJ Exporter v0.97b - (c)2007 guruware
# File Created: 20.06.2019 16:05:19

#
# object Wall_long_bottom_low
#

v  1300.0000 349.9999 -650.0000
v  1300.0000 349.9999 -2000.0000
v  1300.0000 19.9999 -650.0000
v  1300.0000 19.9999 -2000.0000
v  1290.0000 -0.0001 -650.0000
v  1290.0000 14.9999 -650.0000
v  1290.0000 14.9999 -2000.0000
v  1290.0000 -0.0001 -2000.0000
# 8 vertices

vn -1.0000 -0.0000 -0.0000
vn -0.8507 0.5257 -0.0000
vn -0.8507 0.5257 -0.0000
vn -1.0000 -0.0000 -0.0000
vn -0.8507 0.5257 -0.0000
vn -1.0000 -0.0000 -0.0000
vn -1.0000 -0.0000 -0.0000
vn -0.8507 0.5257 -0.0000
vn -0.8507 0.5257 -0.0000
vn -0.8507 0.5257 -0.0000
vn -0.8507 0.5257 -0.0000
vn -0.8507 0.5257 -0.0000
# 12 vertex normals

vt 0.0185 0.0005 0.0000
vt 0.2627 0.0005 0.0000
vt 0.2627 0.9995 0.0000
vt 0.0185 0.9995 0.0000
vt 0.0116 0.9995 0.0000
vt 0.0005 0.9995 0.0000
vt 0.0005 0.0005 0.0000
vt 0.0116 0.0005 0.0000
vt 0.2773 0.0005 0.0000
vt 0.2773 0.9995 0.0000
vt 0.2699 0.9995 0.0000
vt 0.2699 0.0005 0.0000
# 12 texture coords

o Wall_long_bottom_low
g Wall_long_bottom_low
s 1
f 5/5/1 6/6/2 7/7/3 8/8/4 
f 3/1/5 1/2/6 2/3/7 4/4/8 
s off
f 3/9/9 4/10/10 7/11/11 6/12/12 
# 3 polygons

