# 3ds Max Wavefront OBJ Exporter v0.97b - (c)2007 guruware
# File Created: 20.06.2019 16:06:21

#
# object Wall_middle_bottom_low
#

v  900.0000 0.0000 650.0000
v  900.0000 350.0000 650.0000
v  900.0000 0.0000 -650.0000
v  900.0000 350.0000 -650.0000
v  900.0000 20.0000 -650.0000
v  900.0000 20.0000 650.0000
v  890.0000 0.0000 -650.0000
v  890.0000 0.0000 650.0000
v  890.0000 15.0000 650.0000
v  890.0000 15.0000 -650.0000
# 10 vertices

vn -0.5774 -0.5774 -0.5774
vn -0.5774 -0.5774 0.5774
vn -0.6768 0.4182 0.6058
vn -0.6768 0.4182 -0.6058
vn -0.7859 0.4856 0.3828
vn -1.0000 -0.0000 -0.0000
vn -1.0000 -0.0000 -0.0000
vn -0.7859 0.4856 -0.3828
vn 0.0000 -0.7071 -0.7071
vn 0.0000 -0.7071 0.7071
vn -0.5774 -0.5774 0.5774
vn -0.5774 -0.5774 -0.5774
vn 0.0000 -0.7071 0.7071
vn -0.7859 0.4856 0.3828
vn -0.6768 0.4182 0.6058
vn -0.5774 -0.5774 0.5774
vn -0.7859 0.4856 0.3828
vn -0.7859 0.4856 -0.3828
vn -0.6768 0.4182 -0.6058
vn -0.6768 0.4182 0.6058
vn -0.7859 0.4856 -0.3828
vn 0.0000 -0.7071 -0.7071
vn -0.5774 -0.5774 -0.5774
vn -0.6768 0.4182 -0.6058
# 24 vertex normals

vt 0.0005 0.3030 0.0000
vt 0.0005 0.2674 0.0000
vt 0.0005 0.3290 0.0000
vt 0.0005 0.0138 0.0000
vt 0.9995 0.0138 0.0000
vt 0.9995 0.2674 0.0000
vt 0.0005 0.2738 0.0000
vt 0.9995 0.2738 0.0000
vt 0.9995 0.2853 0.0000
vt 0.0005 0.2853 0.0000
vt 0.0005 0.2924 0.0000
vt 0.9995 0.2924 0.0000
vt 0.9995 0.3000 0.0000
vt 0.0005 0.3000 0.0000
vt 0.0005 0.0005 0.0000
vt 0.9995 0.0005 0.0000
vt 0.9995 0.0082 0.0000
vt 0.0005 0.0082 0.0000
vt 0.0005 0.3136 0.0000
vt 0.0082 0.3136 0.0000
vt 0.0082 0.3251 0.0000
vt 0.0159 0.3030 0.0000
vt 0.0120 0.3107 0.0000
vt 0.0005 0.3107 0.0000
# 24 texture coords

o Wall_middle_bottom_low
g Wall_middle_bottom_low
s 1
f 7/7/1 8/8/2 9/9/3 10/10/4 
f 6/2/5 2/4/6 4/5/7 5/6/8 
s off
f 3/15/9 1/16/10 8/17/11 7/18/12 
f 1/1/13 6/22/14 9/23/15 8/24/16 
f 6/11/17 5/12/18 10/13/19 9/14/20 
f 5/3/21 3/19/22 7/20/23 10/21/24 
# 6 polygons

