# 3ds Max Wavefront OBJ Exporter v0.97b - (c)2007 guruware
# File Created: 20.06.2019 15:57:45

#
# object Pillar_long_low
#

v  1275.0000 0.0000 1325.0000
v  1325.0000 0.0000 1325.0000
v  1275.0000 0.0000 1275.0000
v  1325.0000 0.0000 1275.0000
v  1281.1881 1050.0000 1318.8119
v  1318.8119 1050.0000 1318.8119
v  1281.1881 1050.0000 1281.1881
v  1318.8119 1050.0000 1281.1881
v  1325.0000 100.0000 1325.0000
v  1275.0000 100.0000 1325.0000
v  1325.0000 100.0000 1275.0000
v  1275.0000 100.0000 1275.0000
v  1281.1881 105.0000 1318.8119
v  1318.8119 105.0000 1318.8119
v  1318.8119 105.0000 1281.1881
v  1281.1881 105.0000 1281.1881
# 16 vertices

vn -0.5774 -0.5774 0.5774
vn -0.5774 -0.5774 -0.5774
vn 0.5774 -0.5774 -0.5774
vn 0.5774 -0.5774 0.5774
vn -0.5774 0.5774 0.5774
vn 0.5774 0.5774 0.5774
vn 0.5774 0.5774 -0.5774
vn -0.5774 0.5774 -0.5774
vn -0.5774 -0.5774 0.5774
vn 0.5774 -0.5774 0.5774
vn 0.6407 0.4232 0.6407
vn -0.6407 0.4232 0.6407
vn 0.5774 -0.5774 0.5774
vn 0.5774 -0.5774 -0.5774
vn 0.6407 0.4232 -0.6407
vn 0.6407 0.4232 0.6407
vn 0.5774 -0.5774 -0.5774
vn -0.5774 -0.5774 -0.5774
vn -0.6407 0.4232 -0.6407
vn 0.6407 0.4232 -0.6407
vn -0.5774 -0.5774 -0.5774
vn -0.5774 -0.5774 0.5774
vn -0.6407 0.4232 0.6407
vn -0.6407 0.4232 -0.6407
vn 0.6407 0.4232 0.6407
vn 0.5453 0.6367 0.5453
vn -0.5453 0.6367 0.5453
vn -0.6407 0.4232 0.6407
vn 0.6407 0.4232 -0.6407
vn 0.5453 0.6367 -0.5453
vn 0.5453 0.6367 0.5453
vn 0.6407 0.4232 0.6407
vn -0.6407 0.4232 -0.6407
vn -0.5453 0.6367 -0.5453
vn 0.5453 0.6367 -0.5453
vn 0.6407 0.4232 -0.6407
vn -0.6407 0.4232 0.6407
vn -0.5453 0.6367 0.5453
vn -0.5453 0.6367 -0.5453
vn -0.6407 0.4232 -0.6407
vn 0.5453 0.6367 0.5453
vn 0.5774 0.5774 0.5774
vn -0.5774 0.5774 0.5774
vn -0.5453 0.6367 0.5453
vn 0.5453 0.6367 -0.5453
vn 0.5774 0.5774 -0.5774
vn 0.5774 0.5774 0.5774
vn 0.5453 0.6367 0.5453
vn -0.5453 0.6367 -0.5453
vn -0.5774 0.5774 -0.5774
vn 0.5774 0.5774 -0.5774
vn 0.5453 0.6367 -0.5453
vn -0.5453 0.6367 0.5453
vn -0.5774 0.5774 0.5774
vn -0.5774 0.5774 -0.5774
vn -0.5453 0.6367 -0.5453
# 56 vertex normals

vt 0.3967 0.0534 0.0000
vt 0.3967 0.0005 0.0000
vt 0.4496 0.0005 0.0000
vt 0.4496 0.0534 0.0000
vt 0.5055 0.0005 0.0000
vt 0.5453 0.0005 0.0000
vt 0.5453 0.0403 0.0000
vt 0.5055 0.0403 0.0000
vt 0.3423 0.0005 0.0000
vt 0.3951 0.0005 0.0000
vt 0.0403 0.0005 0.0000
vt 0.0403 0.9995 0.0000
vt 0.1790 0.0005 0.0000
vt 0.2319 0.0005 0.0000
vt 0.1317 0.0005 0.0000
vt 0.1317 0.9995 0.0000
vt 0.2334 0.0005 0.0000
vt 0.2863 0.0005 0.0000
vt 0.1774 0.0005 0.0000
vt 0.1774 0.9995 0.0000
vt 0.2879 0.0005 0.0000
vt 0.3407 0.0005 0.0000
vt 0.0860 0.0005 0.0000
vt 0.0860 0.9995 0.0000
vt 0.5040 0.0005 0.0000
vt 0.4974 0.0070 0.0000
vt 0.4577 0.0070 0.0000
vt 0.4511 0.0005 0.0000
vt 0.5040 0.0534 0.0000
vt 0.4974 0.0468 0.0000
vt 0.4511 0.0534 0.0000
vt 0.4577 0.0468 0.0000
vt 0.2319 0.1062 0.0000
vt 0.1790 0.1062 0.0000
vt 0.3407 0.1062 0.0000
vt 0.2879 0.1062 0.0000
vt 0.2863 0.1062 0.0000
vt 0.2334 0.1062 0.0000
vt 0.3951 0.1062 0.0000
vt 0.3423 0.1062 0.0000
vt 0.0919 0.9995 0.0000
vt 0.0919 0.0005 0.0000
vt 0.0462 0.9995 0.0000
vt 0.0462 0.0005 0.0000
vt 0.1376 0.9995 0.0000
vt 0.1376 0.0005 0.0000
vt 0.0005 0.9995 0.0000
vt 0.0005 0.0005 0.0000
# 48 texture coords

o Pillar_long_low
g Pillar_long_low
s 2
f 1/1/1 3/2/2 4/3/3 2/4/4 
s 4
f 5/5/5 6/6/6 8/7/7 7/8/8 
s 8
f 1/9/9 2/10/10 9/39/11 10/40/12 
s 16
f 2/13/13 4/14/14 11/33/15 9/34/16 
s 32
f 4/17/17 3/18/18 12/37/19 11/38/20 
s 64
f 3/21/21 1/22/22 10/35/23 12/36/24 
s 8
f 9/25/25 14/26/26 13/27/27 10/28/28 
s 16
f 11/29/29 15/30/30 14/26/31 9/25/32 
s 32
f 12/31/33 16/32/34 15/30/35 11/29/36 
s 64
f 10/28/37 13/27/38 16/32/39 12/31/40 
s 8
f 14/11/41 6/12/42 5/47/43 13/48/44 
s 16
f 15/15/45 8/16/46 6/41/47 14/42/48 
s 32
f 16/19/49 7/20/50 8/45/51 15/46/52 
s 64
f 13/23/53 5/24/54 7/43/55 16/44/56 
# 14 polygons

