# 3ds Max Wavefront OBJ Exporter v0.97b - (c)2007 guruware
# File Created: 03.07.2019 21:38:34

#
# object Walls_and_ground
#

v  900.0000 0.0000 650.0000
v  900.0000 20.0000 -650.0000
v  900.0000 20.0000 650.0000
v  890.0000 0.0000 -650.0000
v  890.0000 0.0000 650.0000
v  890.0000 15.0000 650.0000
v  890.0000 15.0000 -650.0000
v  900.0000 0.0000 -650.0000
v  900.0000 350.0000 -649.9999
v  1300.0000 0.0000 -649.9999
v  1300.0000 0.0001 650.0000
v  899.9999 350.0001 650.0000
v  900.0001 350.0000 -2000.0001
v  899.9999 350.0000 2000.0000
v  1300.0000 350.0000 -2000.0001
v  1299.9999 350.0000 2000.0000
v  900.0000 350.0000 -649.9999
v  900.0000 350.0000 650.0000
v  900.0001 330.0000 -2000.0001
v  899.9999 330.0000 2000.0000
v  900.0000 330.0000 -649.9999
v  900.0000 330.0000 650.0001
v  -899.0713 350.0000 2000.0000
v  -899.0713 350.0000 -2000.0000
v  -889.0713 0.0000 2000.0000
v  -889.0713 15.0000 2000.0000
v  -899.0713 20.0000 2000.0000
v  -889.0713 0.0000 -2000.0000
v  -889.0713 15.0000 -2000.0000
v  -899.0713 20.0000 -2000.0000
v  -1300.0000 0.0000 -2000.0000
v  -1300.0000 0.0000 2000.0000
v  1300.0001 0.0000 -2000.0000
v  1299.9999 0.0000 2000.0000
v  900.0000 0.0000 650.0000
v  900.0000 0.0000 -650.0000
v  1300.0000 350.0000 650.0002
v  1300.0000 350.0000 -649.9998
v  -1299.0713 349.9999 2000.0000
v  -1299.0713 349.9998 -2000.0000
v  1300.0000 350.0000 650.0002
v  1300.0000 350.0000 -649.9998
v  1297.7250 0.0000 1990.0146
v  1297.7250 350.0000 1990.0146
v  1297.7250 0.0000 640.0146
v  1297.7250 350.0000 640.0146
v  1297.7250 0.0000 -2000.0000
v  1297.7250 0.0000 -649.9999
v  1297.7250 350.0000 -649.9999
v  1297.7250 350.0000 -2000.0000
# 50 vertices

vn -1.0000 0.0000 -0.0000
vn -1.0000 0.0000 -0.0000
vn -1.0000 0.0000 -0.0000
vn -1.0000 0.0000 -0.0000
vn -0.4472 0.8944 -0.0000
vn -1.0000 0.0000 -0.0000
vn -1.0000 0.0000 -0.0000
vn -0.4472 0.8944 -0.0000
vn 0.0000 -1.0000 -0.0000
vn 0.0000 -1.0000 -0.0000
vn 0.0000 -1.0000 -0.0000
vn 0.0000 -1.0000 -0.0000
vn 0.0000 0.0000 1.0000
vn 0.0000 0.0000 1.0000
vn 0.0000 0.0000 1.0000
vn 0.0000 0.0000 1.0000
vn -0.4472 0.8944 -0.0000
vn -0.4472 0.8944 -0.0000
vn -0.4472 0.8944 -0.0000
vn -0.4472 0.8944 -0.0000
vn 0.0000 0.0000 -1.0000
vn 0.0000 0.0000 -1.0000
vn 0.0000 0.0000 -1.0000
vn 0.0000 0.0000 -1.0000
vn 0.0000 0.0000 -1.0000
vn 0.0000 0.0000 -1.0000
vn 0.0000 0.0000 -1.0000
vn 0.0000 0.0000 -1.0000
vn -0.0000 -0.0000 1.0000
vn -0.0000 -0.0000 1.0000
vn -0.0000 -0.0000 1.0000
vn -0.0000 -0.0000 1.0000
vn -0.4472 0.8944 -0.0000
vn -0.4472 0.8944 -0.0000
vn 0.0000 1.0000 -0.0000
vn 0.0000 1.0000 -0.0000
vn -0.4472 0.8944 -0.0000
vn 0.0000 1.0000 -0.0000
vn 0.0000 1.0000 -0.0000
vn 0.0000 1.0000 -0.0000
vn 0.0000 1.0000 -0.0000
vn 0.0000 1.0000 -0.0000
vn 0.0000 1.0000 -0.0000
vn -0.4472 0.8944 -0.0000
vn -1.0000 -0.0000 -0.0000
vn -1.0000 -0.0000 -0.0000
vn -1.0000 -0.0000 -0.0000
vn -1.0000 -0.0000 -0.0000
vn -1.0000 0.0000 -0.0000
vn -1.0000 0.0000 -0.0000
vn -1.0000 0.0000 -0.0000
vn -1.0000 0.0000 -0.0000
vn 1.0000 0.0000 -0.0000
vn 1.0000 0.0000 -0.0000
vn 1.0000 0.0000 -0.0000
vn 1.0000 0.0000 -0.0000
vn 1.0000 0.0000 -0.0000
vn 1.0000 0.0000 -0.0000
vn 0.7071 0.7071 -0.0000
vn 0.7071 0.7071 -0.0000
vn 0.4472 0.8944 -0.0000
vn 0.4472 0.8944 -0.0000
vn 0.4472 0.8944 -0.0000
vn 0.4472 0.8944 -0.0000
vn 0.7071 0.7071 -0.0000
vn 0.7071 0.7071 -0.0000
vn -0.0000 1.0000 -0.0000
vn -0.0000 1.0000 -0.0000
vn 0.0000 1.0000 -0.0000
vn 0.0000 1.0000 -0.0000
vn 0.0000 1.0000 -0.0000
vn 0.0000 1.0000 -0.0000
vn -1.0000 0.0000 -0.0000
vn -1.0000 0.0000 -0.0000
vn -1.0000 0.0000 -0.0000
vn -1.0000 0.0000 -0.0000
vn -1.0000 0.0000 -0.0000
vn -1.0000 0.0000 -0.0000
vn -1.0000 0.0000 -0.0000
vn -1.0000 0.0000 -0.0000
# 80 vertex normals

vt 0.0882 0.8749 0.0000
vt 0.9849 0.8635 0.0000
vt 0.0882 0.8727 0.0000
vt 0.9849 0.9376 0.0000
vt 0.0882 0.8844 0.0000
vt 0.0882 0.8819 0.0000
vt 0.3804 0.8727 0.0000
vt 0.3804 0.8749 0.0000
vt 0.3804 0.8819 0.0000
vt 0.3804 0.8844 0.0000
vt 0.4020 0.7804 0.0000
vt 0.4919 0.7804 0.0000
vt 0.4919 0.8591 0.0000
vt 0.4020 0.8591 0.0000
vt 0.0792 0.9995 0.0000
vt 0.0005 0.9995 0.0000
vt 0.0005 0.9096 0.0000
vt 0.0792 0.9096 0.0000
vt 0.0834 0.3178 0.0000
vt 0.0882 0.7849 0.0000
vt 0.3916 0.5912 0.0000
vt 0.6838 0.5912 0.0000
vt 0.6838 0.6811 0.0000
vt 0.3916 0.6811 0.0000
vt 0.0790 0.3178 0.0000
vt 0.0882 0.7804 0.0000
vt 0.9872 0.7734 0.0000
vt 0.0882 0.7734 0.0000
vt 0.0882 0.6835 0.0000
vt 0.9872 0.6835 0.0000
vt 0.9041 0.0039 0.0000
vt 0.0882 0.7758 0.0000
vt 0.0747 0.0051 0.0000
vt 0.9872 0.7758 0.0000
vt 0.0051 0.0039 0.0000
vt 0.0051 0.0005 0.0000
vt 0.0747 0.9041 0.0000
vt 0.0005 0.9041 0.0000
vt 0.9872 0.7783 0.0000
vt 0.0882 0.7783 0.0000
vt 0.0882 0.0051 0.0000
vt 0.9872 0.0051 0.0000
vt 0.9872 0.5895 0.0000
vt 0.0882 0.5895 0.0000
vt 0.9041 0.0005 0.0000
vt 0.0882 0.8773 0.0000
vt 0.3804 0.8773 0.0000
vt 0.3804 0.8807 0.0000
vt 0.0882 0.8807 0.0000
vt 0.0790 0.3281 0.0000
vt 0.0812 0.3281 0.0000
vt 0.0812 0.3315 0.0000
vt 0.0790 0.3326 0.0000
vt 0.0858 0.3281 0.0000
vt 0.0858 0.3326 0.0000
vt 0.0836 0.3315 0.0000
vt 0.0836 0.3281 0.0000
vt 0.9872 0.5912 0.0000
vt 0.9872 0.6811 0.0000
vt 0.0882 0.6811 0.0000
vt 0.0882 0.5912 0.0000
vt 0.0005 0.0051 0.0000
vt 0.6927 0.9376 0.0000
vt 0.6927 0.8635 0.0000
vt 0.3916 0.7804 0.0000
vt 0.3916 0.7849 0.0000
vt 0.0790 0.0143 0.0000
vt 0.0834 0.0143 0.0000
vt 0.9869 0.8591 0.0000
vt 0.6835 0.8591 0.0000
vt 0.6835 0.7804 0.0000
vt 0.9869 0.7804 0.0000
vt 0.3916 0.8683 0.0000
vt 0.0882 0.8683 0.0000
vt 0.0882 0.7896 0.0000
vt 0.3916 0.7896 0.0000
# 76 texture coords

o Walls_and_ground
g Walls_and_ground
s off
f 6/46/1 7/47/2 4/48/3 5/49/4 
f 17/2/5 2/4/6 3/63/7 18/64/8 
f 1/1/9 5/3/10 4/7/11 8/8/12 
f 1/54/13 3/55/14 6/56/15 5/57/16 
f 2/5/17 7/6/18 6/9/19 3/10/20 
f 8/50/21 4/51/22 7/52/23 2/53/24 
f 9/11/25 38/12/26 10/13/27 36/14/28 
f 11/15/29 37/16/30 12/17/31 35/18/32 
f 17/21/33 18/22/34 41/23/35 42/24/36 
f 18/22/37 14/58/38 16/59/39 41/23/40 
f 42/24/41 15/60/42 13/61/43 17/21/44 
f 20/20/45 14/26/46 18/65/47 22/66/48 
f 21/19/49 17/25/50 13/67/51 19/68/52 
f 29/31/53 26/35/54 25/36/55 28/45/56 
f 27/33/57 30/37/58 24/38/59 23/62/60 
f 26/32/61 29/34/62 30/39/63 27/40/64 
f 23/27/65 24/28/66 40/29/67 39/30/68 
f 31/41/69 32/42/70 34/43/71 33/44/72 
f 43/70/73 44/71/74 46/72/75 45/69/76 
f 48/74/77 49/75/78 50/76/79 47/73/80 
# 20 polygons

